<svg width="24px" height="24px" viewBox="0 0 1024 1024" class="icon" version="1.1" xmlns="http://www.w3.org/2000/svg" fill="#000000"><g id="SVGRepo_bgCarrier" stroke-width="0"></g><g id="SVGRepo_tracerCarrier" stroke-linecap="round" stroke-linejoin="round"></g><g id="SVGRepo_iconCarrier"><path d="M919.636393 270.54941c-4.26653-5.095877-10.383221-8.155247-18.030621-7.326923l-75.598573 8.283232c-37.143488 5.288368-79.262035 11.277073-109.907946 11.277073l-85.98589-8.410194s-90.409074-9.046027-91.302926-9.046027h-90.667093V251.244053c0-31.474235-25.611468-57.088774-57.088774-57.088774h-6.30611v-41.668038c0-15.228246-5.927272-29.565713-16.696498-40.333914-10.76513-10.76513-25.102597-16.754859-40.3933-16.75486h-110.292927c-15.228246 0-29.565713 5.989729-40.330843 16.75486-10.833731 10.769226-16.757931 25.106692-16.757931 40.333914v41.668038h-6.309181c-15.228246 0-29.562641 5.927272-40.330843 16.757931-10.830659 10.768202-16.757931 25.102597-16.757931 40.330843v618.644823c0 15.28968 5.927272 29.627146 16.757931 40.396372 10.768202 10.76513 25.102597 16.692402 40.330843 16.692403h237.085766c31.477307 0 57.088774-25.614539 57.088774-57.088775v-16.504007h89.456861l0.065529 0.065529 86.203977 8.471627 93.057865 8.922136c34.08719 0 77.859312-5.861743 116.471051-11.023149l68.780521-7.326923c3.569264-0.381909 6.945014-1.529685 10.066841-3.248788 8.856608-3.696226 15.035756-12.360344 15.035756-22.55517v-538.553442c0.002048-6.946038-2.992817-13.127234-7.644328-17.587279z" fill="#27323A"></path><path d="M725.400227 331.396868c18.608092-0.571328 39.313101-2.482922 60.46862-5.095878v55.940999c-21.471899 2.739917-42.245509 4.779497-60.46862 5.418401v-56.263522zM632.279905 323.688035l60.468619 5.80031v56.387413l-60.468619-5.927272zM539.129889 314.576479l60.526981 5.927273v56.321884l-59.509239-5.734782a7.686307 7.686307 0 0 1-1.017742-0.254948v-56.259427zM448.143344 314.260099h58.364535v56.387412h-58.364535z" fill="#FFFFFF"></path><path d="M209.211512 152.486218c0-2.932408 1.529685-4.844001 2.420465-5.734782 0.893852-0.893852 2.805446-2.420465 5.734782-2.420465h110.292927c2.929336 0 4.903387 1.526613 5.797239 2.420465a8.047739 8.047739 0 0 1 2.359032 5.734782v41.668037h-126.603421v-41.668037z" fill="#79CCBF"></path><path d="M145.813557 306.740685h41.479642v505.03758h-41.479642z" fill="#F4CE73"></path><path d="M399.209817 869.888876a8.129649 8.129649 0 0 1-8.155247 8.155247H153.968803a8.033404 8.033404 0 0 1-5.73171-2.359032c-0.893852-0.89078-2.423537-2.802374-2.423536-5.797238V844.401299h253.39626v25.487577z" fill="#79CCBF"></path><path d="M236.226727 306.740685h162.984113v505.03758H236.226727z" fill="#F4CE73"></path><path d="M399.209817 274.118675H145.813557V251.244053c0-2.929336 1.529685-4.84093 2.423536-5.734782 0.89078-0.89078 2.802374-2.420465 5.73171-2.420465h237.085767c4.524549 0 8.155247 3.696226 8.155247 8.155247v22.874622z" fill="#79CCBF"></path><path d="M448.143344 746.919225h63.972355v57.532116h-63.972355zM605.203257 811.01547l-60.465548-5.797238v-57.600717l60.465548 5.927272zM698.353272 820.127026l-60.528004-5.989729v-57.409251l60.528004 5.800311zM791.472571 815.921929c-21.217976 2.612955-42.049946 4.651511-60.526981 5.480858V763.801046c18.920377-0.828323 39.567024-2.929336 60.526981-5.669253v57.790136zM878.382005 806.046555l-51.480954 5.288367c-0.956309 0.126962-1.911594 0.254947-2.805446 0.38191v-57.982626c2.485994-0.381909 5.098949-0.762795 7.584943-1.083271l46.702481-5.349801v58.745421z" fill="#FFFFFF"></path><path d="M878.382005 714.613595l-51.419521 5.734782c-36.889564 5.352872-78.750092 11.342602-109.972451 11.342602l-87.130593-8.475723-88.308062-8.537156c-0.635833-0.065529-1.148799-0.381909-1.846065-0.381909h-91.560945V403.269522H535.944582l87.355848 8.537156 91.971524 8.856608c24.913178 0 55.624618-3.441279 85.695106-7.453885 0.384981 0.062457 0.76689 0.254947 1.213304 0.254947 2.227974 0 4.394516-0.446414 6.30611-1.275761 7.838866-1.083271 15.67466-2.166541 23.194074-3.184283l46.702481-5.225911V714.613595z" fill="#F4CE73"></path><path d="M878.382005 371.090854l-51.22703 5.60782c-2.867903 0.381909-5.80031 0.76689-8.664118 1.210232v-55.940998c4.775401-0.635833 9.747388-1.337194 14.399923-1.977123l45.491225-5.160382v56.260451z" fill="#FFFFFF"></path></g></svg>